<svg viewBox="0 0 40 38" fill="none" xmlns="http://www.w3.org/2000/svg">
<path d="M15.2 38H5.6V36.4167H9.6V29.2917H0V23.75H1.6V27.7083H9.6V21.375H11.2V36.4167H15.2V38ZM40 14.25H38.4V10.2917H32V8.70833H40V14.25ZM34.4 18.2083H30.4V1.58333H34.4V0H24.8V1.58333H28.8V8.70833H15.68L11.28 0H5.6V1.58333H9.6V8.70833H5.6C2.52 8.70833 0 11.2021 0 14.25C0 17.2979 2.52 19.7917 5.6 19.7917H19.52L23.52 27.7083H12.8V29.2917H28.8V34.6354L26.88 30.875H25.08L28.68 38H34.4V36.4167H30.4V21.375H28.8V27.7083H25.28L17.28 11.875H15.48L18.68 18.2083H11.2V3.36458L13.92 8.70833H12.8V10.2917H28.8V18.2083H22.28L23.08 19.7917H34.4C36.6 19.7917 38.4 21.5729 38.4 23.75C38.4 25.9271 36.6 27.7083 34.4 27.7083H32V29.2917H34.4C37.48 29.2917 40 26.7979 40 23.75C40 20.7021 37.48 18.2083 34.4 18.2083ZM9.6 18.2083H5.6C3.4 18.2083 1.6 16.4271 1.6 14.25C1.6 12.0729 3.4 10.2917 5.6 10.2917C5.6 10.2917 5.6 10.2917 5.64 10.2917H9.6V18.2083Z" fill="white"/>
</svg>
